<svg width="195" height="43" viewBox="0 0 195 43" fill="none" xmlns="http://www.w3.org/2000/svg">
<g filter="url(#filter0_d_27_1796)">
<path d="M17.5641 6.2979V33.1589H12.5044V6.2979H4.23438V1.99844H25.7916V6.2979H17.5641Z" fill="white"/>
<path d="M30.3199 16.1952C30.816 14.8614 31.4679 13.8752 32.2758 13.2366C33.0978 12.5981 34.1112 12.2788 35.3159 12.2788C35.9679 12.2788 36.6057 12.3569 37.2293 12.513C37.8671 12.6691 38.4907 12.8961 39.1001 13.1941L37.4419 17.1104C37.045 16.8266 36.6128 16.6209 36.145 16.4932C35.6915 16.3513 35.1813 16.2803 34.6144 16.2803C33.0837 16.2803 31.9852 16.8976 31.3191 18.1321C30.653 19.3524 30.3199 21.4099 30.3199 24.3046V33.1589H25.7066V12.9387H30.3199V16.1952Z" fill="white"/>
<path d="M60.6999 33.1589H56.0866V30.5409C55.2645 31.7045 54.3008 32.5701 53.1953 33.1376C52.1039 33.7052 50.8496 33.989 49.4323 33.989C46.5835 33.989 44.3371 33.017 42.693 31.0731C41.0631 29.1149 40.2482 26.4401 40.2482 23.0488C40.2482 19.8277 41.0844 17.231 42.7568 15.2587C44.4292 13.2721 46.6119 12.2788 49.3047 12.2788C50.9488 12.2788 52.352 12.6265 53.5141 13.3218C54.6905 14.0029 55.548 14.9891 56.0866 16.2803V12.9812H60.6999V33.1589ZM56.2141 23.0062C56.2141 20.9203 55.7251 19.2956 54.7472 18.1321C53.7834 16.9685 52.4299 16.3868 50.6866 16.3868C48.9433 16.3868 47.5685 16.9898 46.5623 18.1959C45.5701 19.3879 45.0741 21.0481 45.0741 23.1765C45.0741 25.3191 45.556 26.9722 46.5197 28.1358C47.4835 29.2993 48.8441 29.8811 50.6016 29.8811C52.2598 29.8811 53.6063 29.2497 54.6409 27.9868C55.6897 26.7239 56.2141 25.0637 56.2141 23.0062Z" fill="white"/>
<path d="M74.1572 34.3721L63.5912 12.9812H68.6297L73.0305 23.1339C73.1722 23.4461 73.3423 23.9144 73.5407 24.5387C73.7391 25.1631 73.9446 25.908 74.1572 26.7736C74.299 26.1634 74.4619 25.5604 74.6462 24.9644C74.8446 24.3542 75.0785 23.7441 75.3478 23.1339L79.7272 12.9812H84.7445L74.1572 34.3721Z" fill="white"/>
<path d="M107.067 23.7512H90.9523C91.0657 25.6384 91.6255 27.1141 92.6318 28.1784C93.6381 29.2284 94.9775 29.7534 96.6499 29.7534C98.1381 29.7534 99.3782 29.4412 100.37 28.8169C101.362 28.1925 102.227 27.1851 102.964 25.7945L106.855 27.9655C105.721 29.9946 104.318 31.5058 102.645 32.4991C100.973 33.4924 99.0097 33.989 96.7562 33.989C93.5247 33.989 90.9523 33.0028 89.039 31.0305C87.1256 29.0581 86.1689 26.4259 86.1689 23.1339C86.1689 19.9696 87.1539 17.3729 89.124 15.3438C91.1082 13.3005 93.6523 12.2788 96.7562 12.2788C100.002 12.2788 102.532 13.2083 104.346 15.0671C106.16 16.926 107.067 19.5298 107.067 22.8785V23.7512ZM102.284 20.6436C102.099 19.1963 101.547 18.0966 100.625 17.3446C99.7042 16.5783 98.4428 16.1952 96.8412 16.1952C95.3247 16.1952 94.1058 16.5641 93.1846 17.302C92.2633 18.0398 91.6184 19.1537 91.2499 20.6436H102.284Z" fill="white"/>
<path d="M112.106 33.1589V0.167969H116.719V33.1589H112.106Z" fill="white"/>
<path d="M123.543 33.1589V0.167969H128.157V33.1589H123.543Z" fill="white"/>
<path d="M134.364 4.25459C134.364 3.47416 134.648 2.80015 135.215 2.23256C135.796 1.66498 136.483 1.38118 137.277 1.38118C138.099 1.38118 138.779 1.65788 139.318 2.21128C139.871 2.75049 140.147 3.43159 140.147 4.25459C140.147 5.07759 139.871 5.77288 139.318 6.34047C138.765 6.89387 138.085 7.17057 137.277 7.17057C136.483 7.17057 135.796 6.88677 135.215 6.31919C134.648 5.73741 134.364 5.04921 134.364 4.25459ZM134.981 33.1589V12.9812H139.594V33.1589H134.981Z" fill="white"/>
<path d="M165.17 33.1589H160.556V30.5409C159.734 31.7045 158.77 32.5701 157.665 33.1376C156.574 33.7052 155.319 33.989 153.902 33.989C151.053 33.989 148.807 33.017 147.163 31.0731C145.533 29.1149 144.718 26.4401 144.718 23.0488C144.718 19.8277 145.554 17.231 147.226 15.2587C148.899 13.2721 151.082 12.2788 153.774 12.2788C155.419 12.2788 156.822 12.6265 157.984 13.3218C159.16 14.0029 160.018 14.9891 160.556 16.2803V12.9812H165.17V33.1589ZM160.684 23.0062C160.684 20.9203 160.195 19.2956 159.217 18.1321C158.253 16.9685 156.9 16.3868 155.156 16.3868C153.413 16.3868 152.038 16.9898 151.032 18.1959C150.04 19.3879 149.544 21.0481 149.544 23.1765C149.544 25.3191 150.026 26.9722 150.989 28.1358C151.953 29.2993 153.314 29.8811 155.071 29.8811C156.73 29.8811 158.076 29.2497 159.111 27.9868C160.159 26.7239 160.684 25.0637 160.684 23.0062Z" fill="white"/>
<path d="M171.547 33.1589V12.9812H175.884V16.2803C176.806 14.8897 177.89 13.8752 179.137 13.2366C180.384 12.5981 181.901 12.2788 183.687 12.2788C185.189 12.2788 186.465 12.5201 187.513 13.0025C188.576 13.4708 189.406 14.1732 190.001 15.1097C190.355 15.6631 190.61 16.3087 190.766 17.0466C190.922 17.7844 191 19.0757 191 20.9203V33.1589H186.344V22.7934C186.344 20.1399 186.018 18.3804 185.366 17.5148C184.728 16.6351 183.588 16.1952 181.943 16.1952C180.866 16.1952 179.903 16.3938 179.052 16.7912C178.216 17.1885 177.557 17.749 177.075 18.4726C176.735 18.9551 176.494 19.5794 176.352 20.3457C176.225 21.0977 176.161 22.3038 176.161 23.964V33.1589H171.547Z" fill="white"/>
</g>
<defs>
<filter id="filter0_d_27_1796" x="0.234375" y="0.167969" width="194.766" height="42.2041" filterUnits="userSpaceOnUse" color-interpolation-filters="sRGB">
<feFlood flood-opacity="0" result="BackgroundImageFix"/>
<feColorMatrix in="SourceAlpha" type="matrix" values="0 0 0 0 0 0 0 0 0 0 0 0 0 0 0 0 0 0 127 0" result="hardAlpha"/>
<feOffset dy="4"/>
<feGaussianBlur stdDeviation="2"/>
<feComposite in2="hardAlpha" operator="out"/>
<feColorMatrix type="matrix" values="0 0 0 0 0 0 0 0 0 0 0 0 0 0 0 0 0 0 0.25 0"/>
<feBlend mode="normal" in2="BackgroundImageFix" result="effect1_dropShadow_27_1796"/>
<feBlend mode="normal" in="SourceGraphic" in2="effect1_dropShadow_27_1796" result="shape"/>
</filter>
</defs>
</svg>
